<svg height="16" viewBox="0 0 16 16" width="16" xmlns="http://www.w3.org/2000/svg"><path d="m220.93 0-86.03 129v81.77h-52.73v-81.77l-82.17-129h59.26l52.26 83.06 52.68-83.06z" transform="matrix(.03174675 0 0 .03174675 .5 1)"/><path d="m10.324986 6.2188491h-3.0311804l-.616522 1.4879705h-1.340348l2.8372076-6.6912637h1.3736821l2.7206967 6.6912637h-1.433683zm-.5035037-1.3359035-.9285926-2.4543416-1.0365316 2.4552941z" fill="#cb171e" stroke-width=".031747"/><g transform="matrix(.03174675 0 0 .03174675 .5 1)"><path d="m298.26 234.41h-58.06l-51.51 93.42-49.06-93.42h-57.46v206.58h44.33v-142.5l46.38 95.78h34.89l47.97-99.14v145.81h42.52z"/><path d="m325.54 234.36v205.69h154.19v-43.96h-109.03v-161.73z"/></g></svg>